{"title":"Our Idiot Brother 2011 720p BRRiP XviD AC3 - MiSTERE","uid":6806042,"size":2871388825,"categoryP":"video","categoryS":"hd___movies","magnet":"?xt=urn:btih:fa4fcd5563383eb5829f3baa5dadbb2a58576236&amp;dn=Our+Idiot+Brother+2011+720p+BRRiP+XviD+AC3+-+MiSTERE&amp;tr=udp%3A%2F%2Ftracker.openbittorrent.com%3A80&amp;tr=udp%3A%2F%2Fopen.demonii.com%3A1337&amp;tr=udp%3A%2F%2Ftracker.coppersurfer.tk%3A6969&amp;tr=udp%3A%2F%2Fexodus.desync.com%3A6969","seeders":0,"leechers":0,"uploader":"sceneline","files":61,"time":1320866749,"description":"- &lt;a href=&quot;\nhttp://www.Speed.Cd&quot; rel=&quot;nofollow&quot; target=&quot;_NEW&quot;&gt;\nhttp://www.Speed.Cd&lt;/a&gt;      fast  and The Hottest Private Tracker on the net\n\n   signup is open now\n\nPlease Seed back to make the speed Faster!!!\n\n------------------nfo--------------------------\n-Our Idiot Brother 2011 720p BRRiP XviD AC3 - MiSTERE\n &lt;a href=&quot;\nhttp://www.imdb.com/title/tt1637706/&quot; rel=&quot;nofollow&quot; target=&quot;_NEW&quot;&gt;\nhttp://www.imdb.com/title/tt1637706/&lt;/a&gt;\n\nSource: Our.Idiot.Brother.720p.BluRay.x264-REFiNED\n\nVideo\nID                               : 0\nFormat                           : MPEG-4 Visual\nFormat profile                   : Advanced Simple@L5\nFormat settings, BVOP            : 2\nFormat settings, QPel            : No\nFormat settings, GMC             : No warppoints\nFormat settings, Matrix          : Default (H.263)\nMuxing mode                      : Packed bitstream\nCodec ID                         : XVID\nCodec ID/Hint                    : XviD\nDuration                         : 1h 29mn\nBit rate                         : 3 740 Kbps\nWidth                            : 1 280 pixels\nHeight                           : 720 pixels\nDisplay aspect ratio             : 16:9\nFrame rate                       : 23.976 fps\nColor space                      : YUV\nChroma subsampling               : 4:2:0\nBit depth                        : 8 bits\nScan type                        : Progressive\nCompression mode                 : Lossy\nBits/(Pixel*Frame)               : 0.169\nStream size                      : 2.35 GiB (89%)\nWriting library                  : XviD 64\n\nAudio\nID                               : 1\nFormat                           : AC-3\nFormat/Info                      : Audio Coding 3\nMode extension                   : CM (complete main)\nCodec ID                         : 2000\nDuration                         : 1h 29mn\nBit rate mode                    : Constant\nBit rate                         : 448 Kbps\nChannel(s)                       : 6 channels\nChannel positions                : Front: L C R, Side: L R, LFE\nSampling rate                    : 48.0 KHz\nBit depth                        : 16 bits\nCompression mode                 : Lossy\nStream size                      : 288 MiB (11%)\nAlignment                        : Aligned on interleaves\nInterleave, duration             : 42 ms (1.00 video frame)\n\n \nSharpened and tweaked RGB\n\n\n[IMG]http://i.imgur.com/CIjUA.jpg[/IMG]\n[IMG]http://i.imgur.com/2WNrH.png[/IMG]\n[IMG]http://i.imgur.com/Imjqg.png[/IMG]\n[IMG]http://i.imgur.com/bDDV7.png[/IMG]\n[IMG]http://i.imgur.com/R4dWi.jpg[/IMG]","torrent":{"xt":"urn:btih:fa4fcd5563383eb5829f3baa5dadbb2a58576236","amp;dn":"Our+Idiot+Brother+2011+720p+BRRiP+XviD+AC3+-+MiSTERE","amp;tr":["udp%3A%2F%2Ftracker.openbittorrent.com%3A80","udp%3A%2F%2Fopen.demonii.com%3A1337","udp%3A%2F%2Ftracker.coppersurfer.tk%3A6969","udp%3A%2F%2Fexodus.desync.com%3A6969"],"infoHash":"fa4fcd5563383eb5829f3baa5dadbb2a58576236","infoHashBuffer":{"type":"Buffer","data":[250,79,205,85,99,56,62,181,130,159,59,170,93,173,187,42,88,87,98,54]},"announce":[],"urlList":[]}}